{"title":"The.DEVILS.1971.UnCut.HQ.720p.x264.AC3.[FrOnkY+Kelly=HDmEntEs]","uid":12023605,"size":4308210487,"categoryP":"video","categoryS":"hd___movies","magnet":"?xt=urn:btih:16f3d5c73f21a05256e54dbe713df430d7f438da&amp;dn=The.DEVILS.1971.UnCut.HQ.720p.x264.AC3.%5BFrOnkY%2BKelly%3DHDmEntEs%5D&amp;tr=udp%3A%2F%2Ftracker.openbittorrent.com%3A80&amp;tr=udp%3A%2F%2Fopen.demonii.com%3A1337&amp;tr=udp%3A%2F%2Ftracker.coppersurfer.tk%3A6969&amp;tr=udp%3A%2F%2Fexodus.desync.com%3A6969","seeders":5,"leechers":4,"uploader":"HDmEntEs","files":1,"time":1434489881,"description":"The.DEVILS.1971.UnCut.HQ.720p.x264.AC3.[FrOnkY+Kelly=HDmEntEs].mkv\n\n\nFormat                                   : Matroska\nFormat version                           : Version 4 / Version 2\nFile size                                : 4.01 GiB\nDuration                                 : 1h 53mn\nOverall bit rate                         : 5 054 Kbps\nWriting application                      : mkvmerge v6.9.1 ('Blue Panther') 32bit\nWriting library                          : libebml v1.3.0 + libmatroska v1.4.1\nAttachements                             : The.DEVILS.jpg\n\nVideo\nID                                       : 1\nFormat                                   : AVC\nFormat/Info                              : Advanced Video Codec\nFormat profile                           : High L4.1\nFormat settings, CABAC                   : Yes\nFormat settings, ReFrames                : 12 frames\nCodec ID                                 : V_MPEG4/ISO/AVC\nDuration                                 : 1h 53mn\nBit rate                                 : 4 666 Kbps\nWidth                                    : 1 280 pixels\nHeight                                   : 542 pixels\nDisplay aspect ratio                     : 2.35:1\nFrame rate mode                          : Constant\nFrame rate                               : 23.976 fps\nColor space                              : YUV\nChroma subsampling                       : 4:2:0\nBit depth                                : 8 bits\nScan type                                : Progressive\nBits/(Pixel*Frame)                       : 0.281\nStream size                              : 3.63 GiB (90%)\nWriting library                          : x264 core 146 r2538 121396c\nLanguage                                 : English\nDefault                                  : Yes\nForced                                   : No\n\nAudio #1\nID                                       : 2\nFormat                                   : AC-3\nFormat/Info                              : Audio Coding 3\nMode extension                           : CM (complete main)\nFormat settings, Endianness              : Big\nCodec ID                                 : A_AC3\nDuration                                 : 1h 53mn\nBit rate mode                            : Constant\nBit rate                                 : 320 Kbps\nChannel(s)                               : 2 channels\nChannel positions                        : Front: L R\nSampling rate                            : 48.0 KHz\nBit depth                                : 16 bits\nStream size                              : 260 MiB (6%)\nLanguage                                 : English\nDefault                                  : Yes\nForced                                   : No\n\nAudio #2\nID                                       : 3\nFormat                                   : AC-3\nFormat/Info                              : Audio Coding 3\nMode extension                           : CM (complete main)\nFormat settings, Endianness              : Big\nCodec ID                                 : A_AC3\nDuration                                 : 1h 53mn\nBit rate mode                            : Constant\nBit rate                                 : 64.0 Kbps\nChannel(s)                               : 1 channel\nChannel positions                        : Front: C\nSampling rate                            : 48.0 KHz\nBit depth                                : 16 bits\nStream size                              : 52.0 MiB (1%)\nTitle                                    : com\nLanguage                                 : English\nDefault                                  : No\nForced                                   : No\n\nText #1\nID                                       : 4\nFormat                                   : UTF-8\nCodec ID                                 : S_TEXT/UTF8\nCodec ID/Info                            : UTF-8 Plain Text\nLanguage                                 : Spanish\nDefault                                  : Yes\nForced                                   : No\n\nText #2\nID                                       : 5\nFormat                                   : UTF-8\nCodec ID                                 : S_TEXT/UTF8\nCodec ID/Info                            : UTF-8 Plain Text\nLanguage                                 : English\nDefault                                  : No\nForced                                   : No\n\nText #3\nID                                       : 6\nFormat                                   : UTF-8\nCodec ID                                 : S_TEXT/UTF8\nCodec ID/Info                            : UTF-8 Plain Text\nLanguage                                 : French\nDefault                                  : No\nForced                                   : No\n\nText #4\nID                                       : 7\nFormat                                   : UTF-8\nCodec ID                                 : S_TEXT/UTF8\nCodec ID/Info                            : UTF-8 Plain Text\nLanguage                                 : Italian\nDefault                                  : No\nForced                                   : No\n\nText #5\nID                                       : 8\nFormat                                   : UTF-8\nCodec ID                                 : S_TEXT/UTF8\nCodec ID/Info                            : UTF-8 Plain Text\nLanguage                                 : Portuguese\nDefault                                  : No\nForced                                   : No\n\nMenu\n00:00:00.000                             : en:Chapter 01\n00:04:13.999                             : en:Chapter 02\n00:12:50.777                             : en:Chapter 03\n00:21:40.555                             : en:Chapter 04\n00:32:03.444                             : en:Chapter 05\n00:43:45.444                             : en:Chapter 06\n00:53:43.777                             : en:Chapter 07\n01:03:15.666                             : en:Chapter 08\n01:17:40.888                             : en:Chapter 09\n01:27:35.111                             : en:Chapter 10\n01:36:39.333                             : en:Chapter 11\n01:47:40.222                             : en:Chapter 12\n\n\nSD - HQ\n &lt;a href=&quot;\nhttp://i.imgur.com/N2lYqBO.png&quot; rel=&quot;nofollow&quot; target=&quot;_NEW&quot;&gt;\nhttp://i.imgur.com/N2lYqBO.png&lt;/a&gt; &lt;a href=&quot;\nhttp://i.imgur.com/8AjECd6.jpg&quot; rel=&quot;nofollow&quot; target=&quot;_NEW&quot;&gt;\nhttp://i.imgur.com/8AjECd6.jpg&lt;/a&gt;","torrent":{"xt":"urn:btih:16f3d5c73f21a05256e54dbe713df430d7f438da","amp;dn":"The.DEVILS.1971.UnCut.HQ.720p.x264.AC3.%5BFrOnkY%2BKelly%3DHDmEntEs%5D","amp;tr":["udp%3A%2F%2Ftracker.openbittorrent.com%3A80","udp%3A%2F%2Fopen.demonii.com%3A1337","udp%3A%2F%2Ftracker.coppersurfer.tk%3A6969","udp%3A%2F%2Fexodus.desync.com%3A6969"],"infoHash":"16f3d5c73f21a05256e54dbe713df430d7f438da","infoHashBuffer":{"type":"Buffer","data":[22,243,213,199,63,33,160,82,86,229,77,190,113,61,244,48,215,244,56,218]},"announce":[],"urlList":[]}}